<?xml version="1.0" encoding="utf-8"?>
<!-- Generator: Adobe Illustrator 21.1.0, SVG Export Plug-In . SVG Version: 6.00 Build 0)  -->
<svg version="1.1" id="Layer_1" xmlns="http://www.w3.org/2000/svg" xmlns:xlink="http://www.w3.org/1999/xlink" x="0px" y="0px"
	 viewBox="0 0 166 75" style="enable-background:new 0 0 166 75;" xml:space="preserve">
<style type="text/css">
	.st0{fill:#0000ED;}
	.st1{fill:#ED0000;}
	.st2{fill:#FFFFFF;}
</style>
<g>
	<polygon class="st0" points="165.566,35.348 165.566,0.5 0.434,0.5 0.434,35.348 165.566,35.348 	"/>
	<polygon class="st1" points="165.566,74.5 165.566,39.652 0.434,39.652 0.434,74.5 165.566,74.5 	"/>
	<path class="st2" d="M47.728,5.476h-9.449L33.963,30.37h7.119l1.338-7.809h3.712c8.889,0,11.261-5.437,11.261-9.924
		C57.393,6.813,52.604,5.476,47.728,5.476z M46.304,17.471H43.37l1.122-6.904h3.107c1.38,0,3.107,0.561,3.107,3.018
		C50.706,15.486,49.584,17.471,46.304,17.471z M73.099,4.87c-9.449,0-13.722,7.38-13.722,14.757c0,7.291,4.36,11.348,11.866,11.348
		c9.405,0,13.678-7.378,13.678-14.715C84.921,8.965,80.563,4.87,73.099,4.87z M71.372,25.323c-2.502,0-4.573-1.424-4.573-6.084
		c0-4.271,1.596-8.715,6.214-8.715c2.459,0,4.573,1.424,4.573,6.137C77.585,20.878,75.945,25.323,71.372,25.323z M110.418,12.25
		c0-5.653-4.745-6.772-9.276-6.772H91.09L86.819,30.37h7.119l1.551-9.1h2.978l3.581,9.1h7.293l-4.36-10.053
		C108.823,19.109,110.418,15.738,110.418,12.25z M99.547,16.521h-3.242l1.079-6.127h3.236c1.38,0,3.02,0.516,3.02,2.675
		C103.646,14.536,102.912,16.521,99.547,16.521z M133.588,11.213h-6.808l-3.278,19.157h-7.128l3.323-19.157h-6.819l0.95-5.737
		h20.797C134.625,5.476,133.588,11.213,133.588,11.213z M133.848,27.953l2.455-4.703c2.17,1.372,4.682,2.105,7.248,2.116
		c1.693,0,3.968-0.345,3.968-2.286c0-1.122-0.732-1.693-2.54-2.116l-2.375-0.561c-3.623-0.863-6.349-2.804-6.349-6.732
		c0-3.149,1.467-5.437,3.581-6.901c2.072-1.469,4.834-1.814,6.732-1.814c2.846,0,6.429,0.821,8.889,2.804l-2.54,4.703
		c-2.719-1.812-4.868-2.116-6.817-2.116c-1.598,0-3.28,0.423-3.28,2.072c0,0.993,0.605,1.509,2.675,2.072l2.891,0.777
		c4.055,1.079,6.084,3.536,6.084,6.643c0,5.35-4.315,8.975-10.961,8.975c-3.062,0-6.946-0.605-9.663-2.935L133.848,27.953z
		 M10.535,27.953l2.459-4.703c2.17,1.371,4.682,2.105,7.248,2.116c1.693,0,3.97-0.345,3.97-2.286c0-1.122-0.734-1.693-2.54-2.116
		l-2.379-0.561c-3.623-0.857-6.343-2.804-6.343-6.732c0-3.149,1.467-5.437,3.581-6.901c2.072-1.469,4.832-1.814,6.73-1.814
		c2.849,0,6.429,0.821,8.889,2.804l-2.54,4.703c-2.717-1.812-4.868-2.116-6.817-2.116c-1.596,0-3.278,0.423-3.278,2.072
		c0,0.993,0.603,1.509,2.675,2.072l2.891,0.777c4.055,1.079,6.082,3.536,6.082,6.643c0,5.35-4.313,8.975-10.958,8.975
		c-3.064,0-6.946-0.605-9.665-2.935L10.535,27.953z M32.713,46.526c-2.157-1.206-5.392-1.905-9.018-1.905h-8.11l-4.358,24.903
		h11.174c10.311,0,14.971-6.772,14.971-13.936C37.373,51.36,35.819,48.253,32.713,46.526L32.713,46.526z M22.486,64.303h-2.933
		l2.54-14.452h2.328c2.978,0,5.392,1.509,5.392,5.866C29.822,59.427,28.313,64.303,22.486,64.303z M39.745,69.524l4.358-24.897
		h7.422l-4.358,24.897L39.745,69.524z M104.717,58.479c0-6.214,3.539-14.455,13.678-14.455c6.214,0,9.881,2.804,11.045,7.162
		l-6.514,2.116c-0.69-2.804-2.328-3.581-4.656-3.581c-4.656,0-5.998,5.092-5.998,8.717c0,3.494,1.424,6.04,4.703,6.04
		c2.891,0,4.656-1.511,5.524-3.625l5.911,2.417c-1.63,3.492-5.177,6.857-11.733,6.857c-7.725,0-11.953-4.055-11.953-11.64
		L104.717,58.479z M153.774,50.367h-7.414l-3.365,19.157h-7.327l3.365-19.157h-7.386l0.993-5.74h22.133l-0.993,5.74L153.774,50.367z
		 M77.321,51.404c0-5.653-4.747-6.772-9.278-6.772h-10.52l-4.391,24.892h7.335l1.596-9.1h2.921l3.581,9.1h7.68l-4.358-10.053
		c3.801-1.338,5.441-4.582,5.441-8.067L77.321,51.404z M66.058,55.675h-3.143l1.079-6.127h3.149c1.382,0,3.02,0.516,3.02,2.675
		c0,1.467-0.736,3.452-4.099,3.452L66.058,55.675z M90.819,49.98l-0.777,4.233h9.289l-0.95,5.35h-9.272l-0.819,4.616h12.641
		l-0.906,5.35H79.962l4.358-24.897h19.498l-0.906,5.352L90.819,49.98z"/>
</g>
</svg>
